<?xml version="1.0" encoding="utf-8"?>
<!-- Generator: Adobe Illustrator 24.1.0, SVG Export Plug-In . SVG Version: 6.00 Build 0)  -->
<svg version="1.1" id="Calque_1" xmlns="http://www.w3.org/2000/svg" xmlns:xlink="http://www.w3.org/1999/xlink" x="0px" y="0px"
	 viewBox="0 0 262.04 204.16" style="enable-background:new 0 0 262.04 204.16;" xml:space="preserve">
<style type="text/css">
	.st0{fill:#F0835C;}
</style>
<g>
	<path class="st0" d="M204.7,170.28h-18.79c-5.04,0-9.12-4.08-9.12-9.12v0c0-5.04,4.08-9.12,9.12-9.12h18.79
		c5.04,0,9.12,4.08,9.12,9.12v0C213.83,166.2,209.74,170.28,204.7,170.28z"/>
	<path class="st0" d="M252.92,170.28h-18.79c-5.04,0-9.12-4.08-9.12-9.12v0c0-5.04,4.08-9.12,9.12-9.12h18.79
		c5.04,0,9.12,4.08,9.12,9.12v0C262.04,166.2,257.96,170.28,252.92,170.28z"/>
	<path class="st0" d="M238.91,118.15h-22.15c0.85-5.3,1.3-10.74,1.3-16.29C218.06,45.61,172.46,0,116.2,0
		C59.94,0,14.33,45.61,14.33,101.86c0,5.55,0.45,10.99,1.3,16.29H9.12c-5.04,0-9.12,4.08-9.12,9.12s4.08,9.12,9.12,9.12h35.26
		c2.86,1.54,4.81,4.56,4.81,8.04c0,3.17-1.62,5.97-4.08,7.6h-6.45c-5.04,0-9.12,4.08-9.12,9.12s4.08,9.12,9.12,9.12h53.87
		c3.37,1.34,5.75,4.62,5.75,8.47c0,2.91-1.37,5.5-3.49,7.17H55.6c-5.04,0-9.12,4.08-9.12,9.12v0c0,5.04,4.08,9.12,9.12,9.12h147.26
		c5.04,0,9.12-4.08,9.12-9.12v0c0-5.04-4.08-9.12-9.12-9.12h-60.2c-2.12-1.67-3.49-4.26-3.49-7.17c0-3.85,2.38-7.13,5.75-8.47h12.98
		c5.04,0,9.12-4.08,9.12-9.12s-4.08-9.12-9.12-9.12h-7.12c-2.46-1.63-4.08-4.43-4.08-7.6c0-3.48,1.95-6.5,4.81-8.04h87.42
		c5.04,0,9.12-4.08,9.12-9.12S243.95,118.15,238.91,118.15z"/>
</g>
</svg>
